<svg width="49" height="25" viewBox="0 0 49 25" fill="none" xmlns="http://www.w3.org/2000/svg">
<path d="M40.9751 19.4313L40.8111 18.959L40.9751 19.4313C41.431 19.2731 41.8681 19.0654 42.2788 18.8119C42.9568 18.3934 43.5536 17.8558 44.0404 17.2249L44.5252 16.5965C44.6174 16.477 44.6943 16.3465 44.7542 16.208C44.9118 15.8431 45.3101 15.6456 45.696 15.7408L47.188 16.1092C47.5406 16.1962 47.7347 16.575 47.5995 16.9121L47.5918 16.9312L47.5858 16.9508C47.3578 17.6896 47.039 18.3972 46.6369 19.0574L46.2001 19.7744L46.0078 20.0403C45.464 20.7921 44.7791 21.4308 43.9913 21.921C43.6604 22.1268 43.3134 22.3052 42.9535 22.4545L42.5422 22.6251C42.0268 22.8388 41.4924 23.0034 40.9461 23.1167C40.354 23.2395 39.7509 23.3014 39.1462 23.3014H37.9008C37.1412 23.3014 36.6128 22.5461 36.8733 21.8325L37.4477 20.259C37.5172 20.0686 37.6982 19.942 37.9008 19.942H38.1215C39.0368 19.942 39.9456 19.7887 40.8102 19.4886L40.9751 19.4313Z" fill="#EEEEEE" stroke="#9E9E9E"/>
<path d="M37.231 4.28121L37.252 4.27835L37.2727 4.27367C38.001 4.10889 38.7455 4.0406 39.4879 4.07047L40.3167 4.10383L40.5924 4.13801C41.52 4.25298 42.4143 4.55181 43.226 5.018C43.5576 5.20848 43.8737 5.42585 44.1711 5.6681L44.5256 5.95676C44.9682 6.31718 45.3776 6.71842 45.7488 7.15561C46.1481 7.62576 46.5013 8.13535 46.8037 8.67719L47.4302 9.80001C47.809 10.4788 47.401 11.3475 46.6428 11.4765L45.1797 11.7255C44.9663 11.7618 44.7552 11.6598 44.6486 11.4687L44.5303 11.2567C44.0789 10.4478 43.5039 9.71979 42.8269 9.10016L42.6773 8.96318C42.327 8.64258 41.9441 8.36148 41.535 8.12457C40.8404 7.72227 40.0791 7.45258 39.2874 7.32834L38.5584 7.21393C38.4071 7.19018 38.2532 7.18648 38.1004 7.20292C37.7151 7.24434 37.3591 7.00118 37.2497 6.6218L36.7791 4.99128C36.6849 4.66521 36.9008 4.32607 37.231 4.28121Z" fill="#EEEEEE" stroke="#9E9E9E"/>
<path d="M31.4748 20.2449L31.4613 20.2279L31.4465 20.2121C30.9259 19.6589 30.4758 19.0406 30.1073 18.3723L29.6953 17.6253L29.5779 17.3663C29.1801 16.4886 28.9506 15.543 28.902 14.5819C28.8821 14.1896 28.8925 13.7968 28.9331 13.4073L28.9815 12.9423C29.0419 12.3619 29.1533 11.789 29.3143 11.2308C29.4874 10.6306 29.7171 10.05 30.0002 9.49713L30.5869 8.35114C30.9414 7.65866 31.8696 7.55853 32.3777 8.15797L33.3525 9.30824C33.4958 9.47732 33.5244 9.71761 33.4244 9.91294L33.3133 10.1298C32.8909 10.9549 32.6002 11.8456 32.452 12.7689L32.4191 12.9741C32.3425 13.4515 32.3154 13.9366 32.3383 14.4215C32.3772 15.2458 32.56 16.0587 32.8781 16.8216L33.17 17.5218C33.2308 17.6677 33.3095 17.8052 33.404 17.9312C33.642 18.2481 33.632 18.6893 33.3801 18.9861L32.2927 20.267C32.0767 20.5215 31.6859 20.5109 31.4748 20.2449Z" fill="#EEEEEE" stroke="#9E9E9E"/>
<path d="M16.5698 19.1846L14.913 18.0394C14.5442 17.7844 14.0647 17.754 13.6666 17.9604C13.6158 17.9868 13.5668 18.0167 13.5202 18.05L12.8669 18.5165L12.6045 18.7373C12.2998 18.9936 11.9506 19.1917 11.5743 19.3218C11.2329 19.4398 10.8742 19.5 10.513 19.5H9.97362H9.36144C9.04842 19.5 8.7376 19.4478 8.44175 19.3456L8.39383 19.329C8.00587 19.1949 7.6551 18.971 7.37015 18.6755L7.15957 18.4572C7.10707 18.4027 7.06357 18.3403 7.03072 18.2722C6.85882 17.9157 7.01056 17.4874 7.36855 17.3187L17.7233 12.4384C18.2554 12.1876 18.5188 11.581 18.3388 11.0209C18.3076 10.9241 18.264 10.8317 18.209 10.7461L17.5685 9.75L16.4836 8.25L15.7844 7.52502C15.5278 7.259 15.2454 7.01914 14.9414 6.80899C14.5248 6.52101 14.0709 6.29112 13.5922 6.12568L13.2286 6L11.7819 5.625L11.413 5.57229C10.9362 5.50418 10.4552 5.47 9.97362 5.47C9.49201 5.47 9.011 5.50418 8.53423 5.57229L8.1653 5.625C7.20391 5.87421 6.2736 6.23073 5.39189 6.68784L5.272 6.75L5.04413 6.90751C4.47413 7.30153 3.94471 7.75123 3.46368 8.25L3.13842 8.58726C2.87368 8.86176 2.63648 9.16155 2.43024 9.48233C2.15593 9.90895 1.93842 10.3695 1.78319 10.8524L1.65536 11.25L1.64529 11.2918C1.41172 12.2605 1.2937 13.2535 1.2937 14.25C1.2937 15.2477 1.38883 16.2432 1.57779 17.2228L1.65536 17.625L2.01703 18.75L2.14485 19.1476C2.30008 19.6305 2.5176 20.091 2.7919 20.5177C2.99815 20.8385 3.23534 21.1382 3.50008 21.4127L3.82534 21.75L4.12711 22.0629C4.64579 22.6007 5.24865 23.0504 5.91197 23.3943L6.04854 23.4651C6.2539 23.5716 6.46673 23.6629 6.68536 23.7385L6.75833 23.7637C7.21092 23.9201 7.68644 24 8.1653 24H9.25029H10.2703C10.7945 24 11.3172 23.9464 11.8305 23.8399C12.5182 23.6973 13.1831 23.4611 13.8067 23.1378L14.3136 22.875L14.8924 22.5749C15.4671 22.277 15.9894 21.8874 16.4388 21.4214L16.7596 21.0888C16.8165 21.0297 16.8676 20.9652 16.9119 20.8962C17.2781 20.3268 17.1267 19.5696 16.5698 19.1846Z" stroke="#EEEEEE"/>
<path d="M26.1356 21.609L25.2089 23.5308C25.1788 23.5932 25.139 23.6504 25.0909 23.7003C24.9146 23.8831 24.6483 23.9469 24.4083 23.864L23.828 23.6634C23.754 23.6378 23.6819 23.6069 23.6124 23.5709L22.9935 23.25L22.2702 22.875L22.0094 22.7398C21.7031 22.581 21.4247 22.3733 21.1852 22.125C20.9456 21.8766 20.7471 21.5916 20.5972 21.2807L20.4618 21C20.2238 20.5064 20.1002 19.9654 20.1002 19.4174V2.97333C20.1002 2.57384 20.424 2.25 20.8235 2.25H22.9935C23.5927 2.25 24.0785 2.73577 24.0785 3.33499V18.2843C24.0785 19.0001 24.5624 19.6254 25.2553 19.8051L25.3058 19.8181C25.4509 19.8558 25.5882 19.9186 25.7115 20.0038C26.2288 20.3614 26.4088 21.0425 26.1356 21.609Z" stroke="#EEEEEE"/>
</svg>
