<svg width="42" height="25" viewBox="0 0 42 25" fill="none" xmlns="http://www.w3.org/2000/svg">
<path d="M1.74455 23.8658L1.90909 23.9441C2.1673 24.026 2.43658 24.0678 2.70747 24.0678H4.89612H8.79224H12.6884L11.3896 23.9441L10.6008 23.8075C10.2311 23.7435 9.96107 23.4228 9.96107 23.0476C9.96107 22.986 9.96845 22.9246 9.98304 22.8648L14.4836 4.41453C14.5853 3.99785 14.725 3.59138 14.901 3.20027L15.026 2.92259L15.217 2.60433C15.4337 2.24331 15.7223 1.93072 16.065 1.68603L16.4056 1.4698C16.6921 1.28797 17.0244 1.19141 17.3637 1.19141H8.01301C7.75734 1.19141 7.50574 1.25542 7.28117 1.37761L7.08027 1.48692C6.83806 1.6187 6.62005 1.79074 6.43556 1.99567L6.39957 2.03565C6.09472 2.37429 5.87899 2.78353 5.77187 3.22641L1.1046 22.5224C1.03718 22.8011 1.07353 23.0949 1.20685 23.3487C1.32549 23.5747 1.51414 23.7561 1.74455 23.8658Z" fill="#323238" stroke="#E1E1E6"/>
<path d="M13.4429 24.0684L23.3376 24.1894C23.3971 24.1901 23.4266 24.1176 23.3836 24.0766C23.3779 24.0712 23.3712 24.0668 23.364 24.0638L22.5288 23.7098C22.3215 23.622 22.136 23.4896 21.9855 23.3222C21.6445 22.9428 21.5139 22.4189 21.6371 21.9238L26.2127 3.5283L26.3306 3.19093C26.4238 2.92441 26.5408 2.66684 26.6802 2.42135L26.8486 2.16455C27.1055 1.77251 27.4834 1.475 27.9248 1.31717C28.1575 1.23395 28.4028 1.19141 28.65 1.19141H16.7966C16.5427 1.19141 16.2928 1.25506 16.0698 1.37655L15.87 1.48545C15.6296 1.61645 15.4132 1.78743 15.2302 1.99105L15.1939 2.03137C14.8913 2.36806 14.6772 2.77476 14.5709 3.21483L9.96741 22.2749C9.87967 22.6382 9.92698 23.0209 10.1005 23.3519L10.1218 23.3925C10.1857 23.5143 10.269 23.6248 10.3686 23.7198C10.6033 23.9436 10.9151 24.0684 11.2394 24.0684H13.4429Z" fill="#323238"/>
<path d="M13.4429 24.0684L23.3376 24.1894C23.3971 24.1901 23.4266 24.1176 23.3836 24.0766V24.0766C23.3779 24.0712 23.3712 24.0668 23.364 24.0638L22.5288 23.7098C22.3215 23.622 22.136 23.4896 21.9855 23.3222V23.3222C21.6445 22.9428 21.5139 22.4189 21.6371 21.9238L26.2127 3.5283L26.3306 3.19093C26.4238 2.92441 26.5408 2.66684 26.6802 2.42135V2.42135L26.8486 2.16455C27.1055 1.77251 27.4834 1.475 27.9248 1.31717V1.31717C28.1575 1.23395 28.4028 1.19141 28.65 1.19141H28.7924H16.7966V1.19141C16.5427 1.19141 16.2928 1.25506 16.0698 1.37655L15.87 1.48545C15.6296 1.61645 15.4132 1.78743 15.2302 1.99105L15.1939 2.03137C14.8913 2.36806 14.6772 2.77476 14.5709 3.21483L9.96741 22.2749C9.87967 22.6382 9.92698 23.0209 10.1005 23.3519L10.1218 23.3925C10.1857 23.5143 10.269 23.6248 10.3686 23.7198V23.7198C10.6033 23.9436 10.9151 24.0684 11.2394 24.0684H13.4429Z" stroke="#E1E1E6"/>
<path d="M25.1559 24.1914H32.9481H33.6369C34.4321 24.1914 35.1834 23.8268 35.6754 23.2022C35.9335 22.7927 36.1237 22.3442 36.2387 21.874L38.2728 13.557L40.7404 4.03549L40.9028 3.3396C40.9667 3.06574 40.9628 2.78041 40.8914 2.50841L40.8864 2.4894C40.7918 2.12907 40.5794 1.81072 40.283 1.58497C40.1557 1.48797 40.0151 1.40979 39.8655 1.35281L39.8054 1.32992C39.5649 1.23834 39.3098 1.19141 39.0525 1.19141H38.0131H28.5325C28.2769 1.19141 28.0253 1.25542 27.8007 1.37761L27.5998 1.48692C27.3576 1.6187 27.1396 1.79074 26.9551 1.99567L26.9191 2.03565C26.6142 2.37429 26.3985 2.78353 26.2914 3.22641L21.6566 22.388C21.5683 22.7533 21.6159 23.1384 21.7907 23.4712L21.8119 23.5116C21.8763 23.6342 21.9603 23.7455 22.0606 23.841C22.2969 24.066 22.6106 24.1914 22.9367 24.1914H25.1559Z" fill="#323238" stroke="#E1E1E6"/>
<rect x="9.6958" y="8.74365" width="24.0001" height="7.89552" fill="#323238"/>
<path d="M9.19254 10.028L10.2145 10.0278L10.215 13.3159C10.2151 13.6987 10.1331 14.0212 9.96907 14.2832C9.80732 14.5453 9.58291 14.7424 9.29582 14.8746C9.01101 15.0068 8.68289 15.073 8.31147 15.073C7.94005 15.0731 7.60964 15.007 7.32023 14.8749C7.0331 14.7428 6.80748 14.5457 6.64338 14.2837C6.48156 14.0217 6.40062 13.6993 6.40056 13.3165L6.40006 10.0284L7.42545 10.0282L7.42595 13.3163C7.42598 13.5396 7.46133 13.7219 7.53199 13.8632C7.60265 14.0044 7.70407 14.1081 7.83624 14.1742C7.97069 14.2402 8.12906 14.2732 8.31135 14.2732C8.4982 14.2732 8.65656 14.2401 8.78643 14.174C8.91858 14.1079 9.01883 14.0042 9.08717 13.8629C9.15778 13.7217 9.19307 13.5394 9.19304 13.3161L9.19254 10.028ZM11.9614 12.0954L11.9619 15.0041L10.9775 15.0043L10.9769 11.306L11.8998 11.3059L11.9614 12.0954ZM11.818 13.0251L11.5514 13.0252C11.5514 12.7517 11.5866 12.5056 11.6572 12.2869C11.7278 12.0658 11.8269 11.8778 11.9545 11.7229C12.0821 11.5656 12.2336 11.446 12.4091 11.3639C12.5868 11.2796 12.785 11.2374 13.0038 11.2374C13.1769 11.2373 13.3353 11.2624 13.4789 11.3125C13.6224 11.3626 13.7455 11.4423 13.848 11.5517C13.9529 11.6611 14.0327 11.8057 14.0874 11.9857C14.1444 12.1657 14.1729 12.3856 14.1729 12.6454L14.1733 15.0038L13.1821 15.0039L13.1817 12.6421C13.1817 12.4781 13.1589 12.3505 13.1133 12.2593C13.0677 12.1682 13.0005 12.1044 12.9116 12.0679C12.825 12.0292 12.7179 12.0099 12.5903 12.0099C12.4581 12.0099 12.3431 12.0361 12.2451 12.0886C12.1494 12.141 12.0697 12.2139 12.0059 12.3073C11.9444 12.3985 11.8977 12.5056 11.8658 12.6286C11.8339 12.7517 11.818 12.8839 11.818 13.0251ZM15.9603 11.3053L15.9609 15.0035L14.9731 15.0037L14.9725 11.3054L15.9603 11.3053ZM14.9108 10.3416C14.9108 10.198 14.9609 10.0795 15.0612 9.98608C15.1614 9.89264 15.2959 9.84591 15.4645 9.84589C15.6308 9.84586 15.7641 9.89255 15.8644 9.98596C15.967 10.0794 16.0182 10.1979 16.0183 10.3414C16.0183 10.485 15.967 10.6035 15.8645 10.6969C15.7643 10.7903 15.631 10.8371 15.4646 10.8371C15.296 10.8371 15.1616 10.7904 15.0613 10.697C14.961 10.6036 14.9109 10.4851 14.9108 10.3416ZM16.6168 13.1919L16.6168 13.1201C16.6168 12.849 16.6555 12.5995 16.7329 12.3716C16.8104 12.1414 16.9231 11.942 17.0712 11.7734C17.2193 11.6047 17.4016 11.4737 17.618 11.3802C17.8345 11.2845 18.0829 11.2366 18.3631 11.2366C18.6434 11.2365 18.8929 11.2843 19.1117 11.38C19.3305 11.4734 19.5139 11.6044 19.662 11.773C19.8125 11.9416 19.9264 12.141 20.0039 12.3711C20.0814 12.5989 20.1202 12.8485 20.1203 13.1196L20.1203 13.1914C20.1203 13.4603 20.0816 13.7098 20.0042 13.9399C19.9267 14.1678 19.8128 14.3672 19.6625 14.5381C19.5144 14.7068 19.3321 14.8378 19.1156 14.9313C18.8992 15.0247 18.6508 15.0715 18.3706 15.0715C18.0903 15.0716 17.8408 15.0249 17.622 14.9315C17.4055 14.8381 17.2221 14.7071 17.0716 14.5385C16.9235 14.3676 16.8107 14.1683 16.7332 13.9404C16.6557 13.7103 16.6169 13.4608 16.6168 13.1919ZM17.6012 13.12L17.6012 13.1918C17.6012 13.3467 17.6149 13.4914 17.6423 13.6258C17.6697 13.7603 17.713 13.8788 17.7722 13.9813C17.8338 14.0815 17.9135 14.1601 18.0115 14.2171C18.1095 14.274 18.2292 14.3025 18.3704 14.3025C18.5072 14.3025 18.6245 14.274 18.7225 14.217C18.8204 14.16 18.899 14.0814 18.9583 13.9811C19.0175 13.8786 19.0608 13.7601 19.0881 13.6256C19.1177 13.4912 19.1325 13.3465 19.1325 13.1915L19.1325 13.1198C19.1324 12.9694 19.1176 12.8281 19.088 12.6959C19.0606 12.5615 19.0161 12.443 18.9546 12.3405C18.8953 12.2357 18.8167 12.1537 18.7187 12.0944C18.6207 12.0352 18.5022 12.0056 18.3633 12.0056C18.2243 12.0056 18.1058 12.0353 18.0078 12.0945C17.9121 12.1538 17.8335 12.2358 17.772 12.3407C17.7128 12.4432 17.6695 12.5617 17.6422 12.6961C17.6148 12.8283 17.6012 12.9696 17.6012 13.12ZM21.6889 12.094L21.6894 15.0027L20.705 15.0028L20.7045 11.3046L21.6273 11.3044L21.6889 12.094ZM21.5455 13.0237L21.2789 13.0237C21.2789 12.7503 21.3142 12.5042 21.3848 12.2854C21.4554 12.0644 21.5545 11.8764 21.6821 11.7214C21.8096 11.5642 21.9611 11.4445 22.1366 11.3625C22.3143 11.2781 22.5125 11.236 22.7313 11.2359C22.9045 11.2359 23.0628 11.2609 23.2064 11.311C23.35 11.3612 23.473 11.4409 23.5756 11.5502C23.6804 11.6596 23.7602 11.8043 23.8149 11.9843C23.8719 12.1643 23.9004 12.3842 23.9005 12.644L23.9008 15.0023L22.9096 15.0025L22.9092 12.6407C22.9092 12.4766 22.8864 12.349 22.8408 12.2579C22.7952 12.1667 22.728 12.1029 22.6391 12.0665C22.5525 12.0278 22.4454 12.0084 22.3178 12.0084C22.1857 12.0085 22.0706 12.0347 21.9726 12.0871C21.8769 12.1395 21.7972 12.2125 21.7334 12.3059C21.6719 12.397 21.6252 12.5042 21.5933 12.6272C21.5614 12.7503 21.5455 12.8824 21.5455 13.0237ZM26.6486 13.228L25.3805 13.2282L25.3804 12.4284L26.6485 12.4282C26.8444 12.4282 27.0039 12.3963 27.127 12.3324C27.25 12.2663 27.34 12.1752 27.397 12.059C27.4539 11.9427 27.4824 11.8117 27.4823 11.6659C27.4823 11.5178 27.4538 11.3799 27.3968 11.2523C27.3398 11.1247 27.2498 11.0222 27.1268 10.9447C27.0037 10.8673 26.8442 10.8286 26.6482 10.8286L25.7356 10.8287L25.7363 15.0021L24.7109 15.0022L24.7101 10.0257L26.6481 10.0254C27.0378 10.0253 27.3716 10.0959 27.6496 10.2371C27.9299 10.3761 28.1441 10.5686 28.2923 10.8147C28.4404 11.0608 28.5145 11.3422 28.5146 11.6589C28.5146 11.9802 28.4406 12.2582 28.2925 12.4929C28.1444 12.7276 27.9303 12.9088 27.65 13.0365C27.3721 13.1641 27.0382 13.228 26.6486 13.228ZM31.116 14.1673L31.1158 12.5198C31.1158 12.4013 31.0964 12.2999 31.0576 12.2156C31.0189 12.1291 30.9585 12.0618 30.8764 12.014C30.7967 11.9662 30.693 11.9423 30.5654 11.9423C30.456 11.9423 30.3615 11.9617 30.2817 12.0004C30.202 12.0369 30.1404 12.0905 30.0972 12.1611C30.0539 12.2295 30.0322 12.3104 30.0323 12.4038L29.0479 12.4039C29.0479 12.2467 29.0843 12.0974 29.1572 11.9562C29.2301 11.8149 29.336 11.6907 29.475 11.5836C29.614 11.4742 29.7792 11.3887 29.9706 11.3271C30.1642 11.2656 30.3807 11.2348 30.62 11.2347C30.9071 11.2347 31.1623 11.2825 31.3856 11.3782C31.6089 11.4739 31.7844 11.6174 31.912 11.8088C32.042 12.0002 32.1069 12.2394 32.107 12.5265L32.1072 14.109C32.1073 14.3118 32.1198 14.4782 32.1449 14.6081C32.17 14.7357 32.2065 14.8473 32.2543 14.943L32.2543 15.0011L31.2597 15.0013C31.2118 14.901 31.1754 14.7757 31.1503 14.6253C31.1275 14.4726 31.116 14.32 31.116 14.1673ZM31.2457 12.7488L31.2526 13.3059L30.7023 13.306C30.5724 13.306 30.4596 13.3209 30.3639 13.3505C30.2682 13.3801 30.1896 13.4223 30.1281 13.477C30.0666 13.5294 30.021 13.591 29.9914 13.6616C29.9641 13.7322 29.9504 13.8097 29.9505 13.894C29.9505 13.9783 29.9698 14.0547 30.0086 14.123C30.0473 14.1891 30.1032 14.2415 30.1761 14.2802C30.249 14.3167 30.3345 14.3349 30.4325 14.3349C30.5806 14.3349 30.7093 14.3052 30.8187 14.246C30.928 14.1867 31.0123 14.1138 31.0716 14.0272C31.1331 13.9406 31.165 13.8585 31.1672 13.7811L31.4271 14.198C31.3906 14.2914 31.3405 14.3883 31.2767 14.4886C31.2152 14.5888 31.1366 14.6834 31.0409 14.7723C30.9452 14.8589 30.8302 14.9307 30.6957 14.9877C30.5613 15.0424 30.4018 15.0697 30.2172 15.0698C29.9825 15.0698 29.7695 15.0231 29.5781 14.9297C29.3889 14.8341 29.2385 14.7031 29.1268 14.5367C29.0174 14.3681 28.9627 14.1767 28.9627 13.9625C28.9626 13.7689 28.9991 13.5968 29.072 13.4464C29.1449 13.296 29.2519 13.1695 29.3932 13.067C29.5367 12.9621 29.7156 12.8835 29.9298 12.831C30.144 12.7763 30.3923 12.7489 30.6749 12.7489L31.2457 12.7488ZM33.9633 14.5839L34.9437 11.3025L35.9999 11.3023L34.5137 15.5579C34.4818 15.6513 34.4385 15.7516 34.3839 15.8587C34.3315 15.9658 34.2597 16.0672 34.1686 16.1629C34.0797 16.2609 33.9669 16.3407 33.8302 16.4022C33.6958 16.4638 33.5306 16.4946 33.3346 16.4946C33.2412 16.4946 33.1649 16.4889 33.1056 16.4775C33.0464 16.4662 32.9757 16.4502 32.8937 16.4297L32.8936 15.7085C32.9187 15.7085 32.9449 15.7085 32.9722 15.7085C32.9996 15.7108 33.0258 15.7119 33.0508 15.7119C33.1807 15.7119 33.2867 15.6971 33.3687 15.6674C33.4507 15.6378 33.5168 15.5922 33.5669 15.5307C33.617 15.4714 33.6569 15.394 33.6865 15.2983L33.9633 14.5839ZM33.5526 11.3027L34.3562 13.9822L34.4965 15.0247L33.8266 15.0966L32.4964 11.3028L33.5526 11.3027Z" fill="url(#paint0_linear_3002_343)"/>
<defs>
<linearGradient id="paint0_linear_3002_343" x1="22.8711" y1="13.4628" x2="22.8712" y2="18.7837" gradientUnits="userSpaceOnUse">
<stop stop-color="white"/>
<stop offset="1" stop-color="white" stop-opacity="0"/>
<stop offset="1" stop-color="white" stop-opacity="0"/>
</linearGradient>
</defs>
</svg>
