<svg width="76" height="13" viewBox="0 0 76 13" fill="none" xmlns="http://www.w3.org/2000/svg">
<path d="M10.7727 3.99998H9.36364C9.2803 3.59468 9.13447 3.23862 8.92614 2.9318C8.72159 2.62498 8.47159 2.36741 8.17614 2.15908C7.88447 1.94695 7.56061 1.78786 7.20455 1.6818C6.84849 1.57574 6.47727 1.52271 6.09091 1.52271C5.38636 1.52271 4.74811 1.70074 4.17614 2.0568C3.60795 2.41286 3.1553 2.93748 2.81818 3.63067C2.48485 4.32385 2.31818 5.17423 2.31818 6.1818C2.31818 7.18938 2.48485 8.03976 2.81818 8.73294C3.1553 9.42612 3.60795 9.95074 4.17614 10.3068C4.74811 10.6629 5.38636 10.8409 6.09091 10.8409C6.47727 10.8409 6.84849 10.7879 7.20455 10.6818C7.56061 10.5757 7.88447 10.4185 8.17614 10.2102C8.47159 9.99809 8.72159 9.73862 8.92614 9.4318C9.13447 9.1212 9.2803 8.76514 9.36364 8.36362H10.7727C10.6667 8.95832 10.4735 9.49051 10.1932 9.96021C9.91288 10.4299 9.56439 10.8295 9.14773 11.1591C8.73106 11.4848 8.26326 11.7329 7.74432 11.9034C7.22917 12.0738 6.67803 12.1591 6.09091 12.1591C5.09849 12.1591 4.21591 11.9167 3.44318 11.4318C2.67045 10.947 2.0625 10.2576 1.61932 9.36362C1.17614 8.46968 0.954545 7.40908 0.954545 6.1818C0.954545 4.95453 1.17614 3.89392 1.61932 2.99998C2.0625 2.10605 2.67045 1.41665 3.44318 0.931803C4.21591 0.446954 5.09849 0.20453 6.09091 0.20453C6.67803 0.20453 7.22917 0.289757 7.74432 0.460212C8.26326 0.630666 8.73106 0.880666 9.14773 1.21021C9.56439 1.53597 9.91288 1.9337 10.1932 2.40339C10.4735 2.8693 10.6667 3.4015 10.7727 3.99998ZM13.527 12H12.0497L16.3224 0.363621H17.777L22.0497 12H20.5724L17.0952 2.20453H17.0043L13.527 12ZM14.0724 7.45453H20.027V8.70453H14.0724V7.45453ZM23.8622 12V0.363621H27.794C28.7031 0.363621 29.4493 0.518924 30.0327 0.82953C30.616 1.13635 31.0478 1.5587 31.3281 2.09658C31.6084 2.63445 31.7486 3.2462 31.7486 3.9318C31.7486 4.61741 31.6084 5.22536 31.3281 5.75567C31.0478 6.28597 30.6179 6.70264 30.0384 7.00567C29.4588 7.30491 28.7183 7.45453 27.8168 7.45453H24.6349V6.1818H27.7713C28.3925 6.1818 28.8925 6.09089 29.2713 5.90908C29.6539 5.72726 29.9304 5.46968 30.1009 5.13635C30.2751 4.79923 30.3622 4.39771 30.3622 3.9318C30.3622 3.46589 30.2751 3.0587 30.1009 2.71021C29.9266 2.36173 29.6482 2.09279 29.2656 1.90339C28.883 1.71021 28.3774 1.61362 27.7486 1.61362H25.2713V12H23.8622ZM29.3395 6.77271L32.2031 12H30.5668L27.7486 6.77271H29.3395ZM37.6875 12H34.0966V0.363621H37.8466C38.9754 0.363621 39.9413 0.596575 40.7443 1.06248C41.5473 1.52461 42.1629 2.18938 42.5909 3.0568C43.0189 3.92044 43.233 4.95453 43.233 6.15908C43.233 7.3712 43.017 8.41476 42.5852 9.28976C42.1534 10.161 41.5246 10.8314 40.6989 11.3011C39.8731 11.767 38.8693 12 37.6875 12ZM35.5057 10.75H37.5966C38.5587 10.75 39.3561 10.5644 39.9886 10.1932C40.6212 9.82195 41.0928 9.29355 41.4034 8.60794C41.714 7.92233 41.8693 7.10605 41.8693 6.15908C41.8693 5.21968 41.7159 4.41097 41.4091 3.73294C41.1023 3.05112 40.6439 2.52839 40.0341 2.16476C39.4242 1.79733 38.6648 1.61362 37.7557 1.61362H35.5057V10.75Z" fill="#959595"/>
<path d="M45.1989 12V0.363621H49.7898C50.6723 0.363621 51.4242 0.532181 52.0455 0.869303C52.6667 1.20264 53.1402 1.66665 53.4659 2.26135C53.7955 2.85226 53.9602 3.53408 53.9602 4.3068C53.9602 5.07953 53.7936 5.76135 53.4602 6.35226C53.1269 6.94317 52.6439 7.40339 52.0114 7.73294C51.3826 8.06248 50.6212 8.22726 49.7273 8.22726H46.8011V6.25567H49.3295C49.803 6.25567 50.1932 6.17423 50.5 6.01135C50.8106 5.84468 51.0417 5.61551 51.1932 5.32385C51.3485 5.02839 51.4261 4.68938 51.4261 4.3068C51.4261 3.92044 51.3485 3.58332 51.1932 3.29544C51.0417 3.00377 50.8106 2.77839 50.5 2.6193C50.1894 2.45642 49.7955 2.37498 49.3182 2.37498H47.6591V12H45.1989ZM56.2202 12H53.5838L57.6009 0.363621H60.7713L64.7827 12H62.1463L59.2315 3.02271H59.1406L56.2202 12ZM56.0554 7.42612H62.2827V9.34658H56.0554V7.42612ZM64.3139 0.363621H67.0696L69.723 5.37498H69.8366L72.4901 0.363621H75.2457L71.0014 7.88635V12H68.5582V7.88635L64.3139 0.363621Z" fill="white"/>
</svg>
